<mxfile host="Electron" modified="2024-09-11T12:45:14.824Z" agent="Mozilla/5.0 (Windows NT 10.0; Win64; x64) AppleWebKit/537.36 (KHTML, like Gecko) draw.io/24.2.5 Chrome/120.0.6099.109 Electron/28.1.0 Safari/537.36" etag="2QtFY4W0a7VxATUT0Nge" version="24.2.5" type="device">
  <diagram id="homZyB2eqNRT2hKcQtKw" name="__init__(Page1クラス)">
    <mxGraphModel dx="1036" dy="606" grid="1" gridSize="10" guides="1" tooltips="1" connect="1" arrows="1" fold="1" page="1" pageScale="1" pageWidth="827" pageHeight="1169" math="0" shadow="0">
      <root>
        <mxCell id="0" />
        <mxCell id="1" parent="0" />
        <mxCell id="qyDCbcuzaJREOtA6MuFy-1" value="" style="edgeStyle=orthogonalEdgeStyle;rounded=0;orthogonalLoop=1;jettySize=auto;html=1;" parent="1" source="qyDCbcuzaJREOtA6MuFy-2" edge="1">
          <mxGeometry relative="1" as="geometry">
            <mxPoint x="400" y="455" as="targetPoint" />
          </mxGeometry>
        </mxCell>
        <mxCell id="qyDCbcuzaJREOtA6MuFy-2" value="開始" style="strokeWidth=2;html=1;shape=mxgraph.flowchart.start_1;whiteSpace=wrap;" parent="1" vertex="1">
          <mxGeometry x="365" y="345" width="70" height="40" as="geometry" />
        </mxCell>
        <mxCell id="qyDCbcuzaJREOtA6MuFy-5" value="&lt;b style=&quot;&quot;&gt;&lt;font style=&quot;&quot;&gt;&lt;font style=&quot;font-size: 18px;&quot;&gt;初期化メソッド&lt;/font&gt;&lt;/font&gt;&lt;/b&gt;&lt;div&gt;&lt;font style=&quot;font-size: 14px;&quot;&gt;クラス：Page1クラス&lt;/font&gt;&lt;/div&gt;&lt;div&gt;&lt;div style=&quot;font-size: 14px;&quot;&gt;&lt;font style=&quot;font-size: 14px;&quot;&gt;継承： BasePageクラス&lt;/font&gt;&lt;/div&gt;&lt;/div&gt;&lt;div style=&quot;font-size: 14px;&quot;&gt;&lt;font style=&quot;font-size: 14px;&quot;&gt;&lt;br&gt;&lt;/font&gt;&lt;/div&gt;&lt;div style=&quot;font-size: 14px;&quot;&gt;&lt;font style=&quot;font-size: 14px;&quot;&gt;クラスの役割&lt;/font&gt;&lt;/div&gt;&lt;div style=&quot;font-size: 14px;&quot;&gt;1ページ目で表示するUIの生成&lt;/div&gt;&lt;div style=&quot;font-size: 14px;&quot;&gt;&lt;br&gt;&lt;/div&gt;" style="text;html=1;align=left;verticalAlign=top;whiteSpace=wrap;rounded=0;fillColor=#f5f5f5;fontColor=#333333;strokeColor=#666666;" parent="1" vertex="1">
          <mxGeometry x="20" y="30" width="340" height="130" as="geometry" />
        </mxCell>
        <mxCell id="qyDCbcuzaJREOtA6MuFy-6" style="rounded=0;orthogonalLoop=1;jettySize=auto;html=1;entryX=1;entryY=0.5;entryDx=0;entryDy=0;exitX=-0.006;exitY=0.387;exitDx=0;exitDy=0;exitPerimeter=0;endArrow=none;endFill=0;entryPerimeter=0;" parent="1" source="qyDCbcuzaJREOtA6MuFy-7" target="qyDCbcuzaJREOtA6MuFy-2" edge="1">
          <mxGeometry relative="1" as="geometry">
            <mxPoint x="435" y="325" as="targetPoint" />
          </mxGeometry>
        </mxCell>
        <mxCell id="qyDCbcuzaJREOtA6MuFy-7" value="&amp;nbsp;引数１：self&lt;div&gt;&amp;nbsp;引数２：ページクラス名：str型&lt;span style=&quot;background-color: initial;&quot;&gt;,&lt;/span&gt;&lt;/div&gt;" style="text;html=1;align=left;verticalAlign=top;whiteSpace=wrap;rounded=0;fillColor=#f5f5f5;fontColor=#333333;strokeColor=#666666;" parent="1" vertex="1">
          <mxGeometry x="495" y="330" width="255" height="50" as="geometry" />
        </mxCell>
        <mxCell id="qyDCbcuzaJREOtA6MuFy-10" value="終了" style="strokeWidth=2;html=1;shape=mxgraph.flowchart.start_1;whiteSpace=wrap;" parent="1" vertex="1">
          <mxGeometry x="366" y="900" width="70" height="40" as="geometry" />
        </mxCell>
        <mxCell id="afpLW9AdnrYZ2HSFyDgl-7" value="" style="edgeStyle=orthogonalEdgeStyle;rounded=0;orthogonalLoop=1;jettySize=auto;html=1;" parent="1" source="qyDCbcuzaJREOtA6MuFy-11" target="afpLW9AdnrYZ2HSFyDgl-5" edge="1">
          <mxGeometry relative="1" as="geometry" />
        </mxCell>
        <mxCell id="qyDCbcuzaJREOtA6MuFy-11" value="インスタンス変数へMainWindowクラスからDiaryContorllerクラスを取得し保持する。" style="rounded=1;whiteSpace=wrap;html=1;" parent="1" vertex="1">
          <mxGeometry x="301" y="594" width="200" height="60" as="geometry" />
        </mxCell>
        <mxCell id="afpLW9AdnrYZ2HSFyDgl-4" value="" style="edgeStyle=orthogonalEdgeStyle;rounded=0;orthogonalLoop=1;jettySize=auto;html=1;" parent="1" source="afpLW9AdnrYZ2HSFyDgl-1" target="qyDCbcuzaJREOtA6MuFy-11" edge="1">
          <mxGeometry relative="1" as="geometry" />
        </mxCell>
        <mxCell id="afpLW9AdnrYZ2HSFyDgl-1" value="super().__init__()" style="shape=process;whiteSpace=wrap;html=1;backgroundOutline=1;" parent="1" vertex="1">
          <mxGeometry x="306" y="455" width="190" height="60" as="geometry" />
        </mxCell>
        <mxCell id="afpLW9AdnrYZ2HSFyDgl-2" value="継承しているBasePageの__init__メソッドを呼び出す。" style="text;html=1;align=left;verticalAlign=top;whiteSpace=wrap;rounded=0;fillColor=#f5f5f5;fontColor=#333333;strokeColor=#666666;" parent="1" vertex="1">
          <mxGeometry x="520" y="455" width="255" height="50" as="geometry" />
        </mxCell>
        <mxCell id="afpLW9AdnrYZ2HSFyDgl-8" value="" style="edgeStyle=orthogonalEdgeStyle;rounded=0;orthogonalLoop=1;jettySize=auto;html=1;" parent="1" source="afpLW9AdnrYZ2HSFyDgl-5" target="qyDCbcuzaJREOtA6MuFy-10" edge="1">
          <mxGeometry relative="1" as="geometry" />
        </mxCell>
        <mxCell id="afpLW9AdnrYZ2HSFyDgl-5" value="self.build_ui()" style="shape=process;whiteSpace=wrap;html=1;backgroundOutline=1;" parent="1" vertex="1">
          <mxGeometry x="306" y="740" width="190" height="60" as="geometry" />
        </mxCell>
        <mxCell id="afpLW9AdnrYZ2HSFyDgl-6" value="UI生成を行う" style="text;html=1;align=left;verticalAlign=top;whiteSpace=wrap;rounded=0;fillColor=#f5f5f5;fontColor=#333333;strokeColor=#666666;" parent="1" vertex="1">
          <mxGeometry x="530" y="750" width="90" height="30" as="geometry" />
        </mxCell>
      </root>
    </mxGraphModel>
  </diagram>
</mxfile>
